#!OML:ASF E:\Steps\Project 1\Capture day 1\Session 2\Subject.ASF
:FULLY-SPECIFIED
:DEGREES
390
root 11.6165 18.8551 17.3602 -153.546 4.48865 178.801
lowerback -28.1435 -4.67033 -8.98577
upperback -0.819734 -2.41274 -0.945065
thorax 14.3278 -1.35777 2.98651
lowerneck -3.69048 -3.05673 -0.0128784
upperneck 16.0149 -4.18762 5.0413
head 5.53847 -1.40257 1.36162
rclavicle -5.36719e-015 5.56597e-015
rhumerus -42.0535 -19.7032 -75.4498
rradius 29.773
rwrist 1.4906
rhand -9.30811 -413.566
rfingers 7.12502
rthumb -163.35 97.1278
lclavicle -5.36719e-015 5.56597e-015
lhumerus -31.1506 4.71405 78.1308
lradius 21.3833
lwrist -3.99168
lhand -23.4906 -13.0214
lfingers 7.12502
lthumb 2.96927 16.9377
rfemur -31.7069 12.5822 15.5222
rtibia 16.6449
rfoot -20.1137 -3.07123
rtoes -11.8105
lfemur -27.1764 -4.89481 -25.4954
ltibia 13.6478
lfoot -11.9561 2.76376
ltoes -41.8756
391
root 11.6198 18.854 17.3414 -153.492 4.44307 178.832
lowerback -28.3462 -4.72744 -8.97963
upperback -0.872136 -2.45507 -0.929886
thorax 14.3667 -1.36888 2.97744
lowerneck -4.09561 -2.97518 -0.049995
upperneck 16.1454 -4.09882 5.04142
head 5.64725 -1.35665 1.3678
rclavicle -3.18055e-015 -7.95139e-015
rhumerus -41.9972 -19.5349 -75.6344
rradius 29.8096
rwrist 1.31379
rhand -9.12874 -413.351
rfingers 7.12502
rthumb -163.177 97.3582
lclavicle -3.18055e-015 -7.95139e-015
lhumerus -31.2286 5.09387 77.8988
lradius 21.0875
lwrist -4.14402
lhand -23.5772 -12.6573
lfingers 7.12502
lthumb 2.88564 17.303
rfemur -31.634 12.6647 15.5405
rtibia 16.5754
rfoot -20.188 -3.15031
rtoes -11.4917
lfemur -27.0537 -4.96174 -25.4303
ltibia 13.4147
lfoot -11.9229 2.84978
ltoes -42.233
392
root 11.6272 18.8549 17.328 -153.437 4.37337 178.901
lowerback -28.4617 -4.7675 -8.98435
upperback -0.947869 -2.48218 -0.915655
thorax 14.3365 -1.37117 2.98288
lowerneck -4.11071 -2.83748 0.124611
upperneck 15.6895 -3.92818 4.91435
head 5.49727 -1.2988 1.30758
rclavicle 8.15017e-015 -2.38542e-015
rhumerus -41.9279 -19.3895 -75.7814
rradius 29.7449
rwrist 1.17924
rhand -10.111 -414.997
rfingers 7.12502
rthumb -164.123 95.6335
lclavicle 8.15017e-015 -2.38542e-015
lhumerus -31.2925 5.1007 77.7491
lradius 20.7693
lwrist -3.95667
lhand -23.5832 -11.998
lfingers 7.12502
lthumb 2.87986 17.9623
rfemur -31.5635 12.7146 15.6594
rtibia 16.4676
rfoot -20.1941 -3.26644
rtoes -11.8304
lfemur -26.9671 -4.93754 -25.3012
ltibia 13.192
lfoot -11.863 2.84303
ltoes -42.4809
393
root 11.6304 18.852 17.3108 -153.404 4.37686 178.942
lowerback -28.6728 -4.75442 -8.94403
upperback -0.956102 -2.43738 -0.950825
thorax 14.4162 -1.34418 2.93399
lowerneck -4.06708 -3.2426 0.0179588
upperneck 14.9723 -4.55401 5.3925
head 5.29701 -1.61525 1.43528
rclavicle 2.16675e-014 2.70347e-014
rhumerus -41.7983 -19.4653 -75.8521
rradius 29.5821
rwrist 1.35005
rhand -12.0699 -417.643
rfingers 7.12502
rthumb -166.01 92.848
lclavicle 2.16675e-014 2.70347e-014
lhumerus -31.2768 5.0973 77.5816
lradius 20.4482
lwrist -3.87456
lhand -23.4346 -11.9073
lfingers 7.12502
lthumb 3.02335 18.051
rfemur -31.4947 12.6438 15.727
rtibia 16.3335
rfoot -20.1241 -3.18923
rtoes -12.0725
lfemur -26.8896 -5.02894 -25.2182
ltibia 13.0873
lfoot -11.9171 2.98858
ltoes -42.7864
394
root 11.636 18.8507 17.3008 -153.323 4.41398 178.79
lowerback -28.8352 -4.79395 -9.15672
upperback -0.969717 -2.36901 -1.03021
thorax 14.4689 -1.31744 2.98303
lowerneck -4.05482 -3.13125 0.0068127
upperneck 14.3431 -4.42856 5.49587
head 5.09912 -1.58259 1.47558
rclavicle 2.96189e-014 1.35174e-014
rhumerus -41.7098 -19.5162 -75.9963
rradius 29.5832
rwrist 1.41386
rhand -11.8874 -416.405
rfingers 7.12502
rthumb -165.834 94.098
lclavicle 2.96189e-014 1.35174e-014
lhumerus -31.1302 5.3398 77.3296
lradius 20.0784
lwrist -4.11973
lhand -23.2866 -12.2212
lfingers 7.12502
lthumb 3.1663 17.7351
rfemur -31.5905 12.4885 15.5903
rtibia 16.354
rfoot -20.0842 -2.9893
rtoes -11.3472
lfemur -26.9533 -4.90933 -25.4356
ltibia 13.1183
lfoot -11.9367 2.89109
ltoes -42.9582
395
root 11.6397 18.849 17.2921 -153.167 4.46848 178.693
lowerback -29.0741 -4.82323 -9.28027
upperback -1.01042 -2.30721 -1.08866
thorax 14.5242 -1.28589 3.00302
lowerneck -3.91532 -3.21121 0.214486
upperneck 13.5642 -4.55409 5.43084
head 4.83348 -1.68016 1.41551
rclavicle 1.61016e-014 4.13472e-014
rhumerus -41.6044 -19.2979 -76.2666
rradius 29.6578
rwrist 1.09159
rhand -9.91862 -413.519
rfingers 7.12502
rthumb -163.938 97.1271
lclavicle 1.61016e-014 4.13472e-014
lhumerus -30.9428 5.68646 77.0806
lradius 19.63
lwrist -4.54503
lhand -23.2901 -12.3689
lfingers 7.12502
lthumb 3.16295 17.5874
rfemur -31.7692 12.3744 15.4719
rtibia 16.4011
rfoot -20.0822 -2.78699
rtoes -10.6926
lfemur -27.0912 -4.84161 -25.576
ltibia 13.1171
lfoot -11.9082 2.80985
ltoes -42.5928
396
root 11.641 18.8356 17.2581 -152.983 4.30157 178.606
lowerback -29.6824 -4.93943 -9.24327
upperback -1.00547 -2.36282 -1.11781
thorax 14.8109 -1.30135 2.90829
lowerneck -4.64496 -2.93522 0.346325
upperneck 14.2864 -4.18367 5.06696
head 5.15964 -1.47983 1.29191
rclavicle -2.88238e-014 1.66979e-014
rhumerus -41.4666 -19.0235 -76.5647
rradius 29.6897
rwrist 0.496599
rhand -10.2288 -414.09
rfingers 7.12502
rthumb -164.237 96.5315
lclavicle -2.88238e-014 1.66979e-014
lhumerus -30.9066 6.13103 76.8306
lradius 19.2538
lwrist -4.96745
lhand -23.2688 -12.4364
lfingers 7.12502
lthumb 3.18355 17.5196
rfemur -31.5368 12 15.5499
rtibia 16.011
rfoot -20.0271 -2.52119
rtoes -10.3701
lfemur -26.9776 -4.84655 -25.7768
ltibia 12.8619
lfoot -11.8374 2.42189
ltoes -41.9358
397
root 11.646 18.8316 17.2371 -152.959 4.12722 178.619
lowerback -29.7741 -4.97671 -9.20111
upperback -1.10165 -2.39771 -1.12372
thorax 14.7428 -1.29937 2.86526
lowerneck -4.23139 -3.09759 0.323878
upperneck 13.12 -4.42479 5.30777
head 4.74219 -1.64391 1.36162
rclavicle 8.94531e-015 -6.2816e-014
rhumerus -41.5395 -19.5787 -76.1692
rradius 29.356
rwrist 1.60706
rhand -11.5848 -416.454
rfingers 7.12502
rthumb -165.543 94.0692
lclavicle 8.94531e-015 -6.2816e-014
lhumerus -30.9922 6.44501 76.5834
lradius 18.9762
lwrist -5.30033
lhand -23.2924 -12.4009
lfingers 7.12502
lthumb 3.16069 17.5554
rfemur -31.3325 11.9518 15.6644
rtibia 15.8626
rfoot -20.0435 -2.58726
rtoes -10.1836
lfemur -26.7641 -4.86984 -25.7394
ltibia 12.5796
lfoot -11.7808 2.26735
ltoes -41.9013
398
root 11.65 18.8301 17.2213 -152.989 3.96071 178.763
lowerback -29.7699 -4.95347 -9.05186
upperback -1.14062 -2.42482 -1.08952
thorax 14.6963 -1.29964 2.81381
lowerneck -4.03684 -3.2083 0.237574
upperneck 12.2595 -4.59552 5.60553
head 4.45932 -1.75679 1.46169
rclavicle 2.88238e-014 -2.14687e-014
rhumerus -41.4726 -19.5331 -76.2029
rradius 29.2712
rwrist 1.6726
rhand -9.87835 -414.054
rfingers 7.12502
rthumb -163.899 96.5948
lclavicle 2.88238e-014 -2.14687e-014
lhumerus -30.9762 6.62092 76.4232
lradius 18.7466
lwrist -5.48926
lhand -23.3948 -12.1777
lfingers 7.12502
lthumb 3.06183 17.78
rfemur -31.1302 12.0434 15.8726
rtibia 15.7529
rfoot -20.0782 -2.66943
rtoes -9.95074
lfemur -26.5596 -4.9367 -25.5
ltibia 12.3558
lfoot -11.7912 2.284
ltoes -41.757
399
root 11.6527 18.8301 17.206 -153.061 3.77897 178.849
lowerback -29.9746 -4.95363 -8.97004
upperback -0.986587 -2.4418 -1.07042
thorax 14.9695 -1.32194 2.77229
lowerneck -4.30272 -3.22843 0.338662
upperneck 11.8252 -4.65314 5.64874
head 4.37234 -1.79888 1.45168
rclavicle 1.59028e-015 -4.37326e-014
rhumerus -41.1126 -19.2518 -76.5336
rradius 29.2577
rwrist 1.33709
rhand -9.45958 -413.481
rfingers 7.12502
rthumb -163.496 97.201
lclavicle 1.59028e-015 -4.37326e-014
lhumerus -30.69 6.797 76.3315
lradius 18.5479
lwrist -5.61557
lhand -23.4218 -11.8839
lfingers 7.12502
lthumb 3.03576 18.0742
rfemur -30.8253 12.0404 16.0335
rtibia 15.4992
rfoot -19.9883 -2.68182
rtoes -9.3266
lfemur -26.4286 -5.01604 -25.3432
ltibia 12.3735
lfoot -11.8155 2.20378
ltoes -41.4873
400
root 11.6539 18.8246 17.1882 -153.006 3.63644 178.897
lowerback -29.9229 -4.94506 -8.79036
upperback -1.19775 -2.46721 -1.12121
thorax 14.6947 -1.29138 2.62029
lowerneck -4.30279 -3.09907 0.450589
upperneck 11.2392 -4.44424 5.37358
head 4.63673 -1.73885 1.52084
rclavicle -2.36554e-014 -3.97569e-014
rhumerus -41.3699 -19.0712 -76.6259
rradius 29.2346
rwrist 1.25035
rhand -9.75452 -413.985
rfingers 7.12502
rthumb -163.78 96.6736
lclavicle -2.36554e-014 -3.97569e-014
lhumerus -30.9722 6.8542 76.0911
lradius 18.4381
lwrist -5.70955
lhand -23.3794 -11.8174
lfingers 7.12502
lthumb 3.07666 18.1402
rfemur -30.6471 11.8846 16.1726
rtibia 15.2693
rfoot -19.945 -2.6332
rtoes -9.08104
lfemur -26.3583 -5.09241 -25.2821
ltibia 12.2967
lfoot -11.7359 2.11769
ltoes -41.5499
